<?xml version="1.0" encoding="UTF-8" standalone="no"?>
<svg
   width="1080"
   viewBox="0 0 1080 1080"
   fill="none"
   version="1.1"
   id="svg30"
   sodipodi:docname="logo-horizontal.svg"
   height="1080"
   inkscape:version="1.2.1 (9c6d41e410, 2022-07-14)"
   xmlns:inkscape="http://www.inkscape.org/namespaces/inkscape"
   xmlns:sodipodi="http://sodipodi.sourceforge.net/DTD/sodipodi-0.dtd"
   xmlns="http://www.w3.org/2000/svg"
   xmlns:svg="http://www.w3.org/2000/svg">
  <defs
     id="defs34" />
  <sodipodi:namedview
     id="namedview32"
     pagecolor="#ffffff"
     bordercolor="#000000"
     borderopacity="0.25"
     inkscape:showpageshadow="2"
     inkscape:pageopacity="0.0"
     inkscape:pagecheckerboard="0"
     inkscape:deskcolor="#d1d1d1"
     showgrid="false"
     inkscape:zoom="0.099395819"
     inkscape:cx="-1805.911"
     inkscape:cy="1328.0237"
     inkscape:window-width="1366"
     inkscape:window-height="697"
     inkscape:window-x="-8"
     inkscape:window-y="-8"
     inkscape:window-maximized="1"
     inkscape:current-layer="svg30" />
  <g
     id="g206"
     transform="matrix(0.98879642,0,0,0.98879642,1.2083738,94.040793)">
    <path
       d="m 32.406063,950.86042 c 0,2.41931 -1.21722,3.62896 -3.65166,3.62896 H 2.4296035 c -2.43445002,0 -3.65167,-1.20965 -3.65167,-3.62896 V 809.17574 c 0,-2.57004 1.21721998,-3.77969 3.65167,-3.77969 H 28.754403 c 2.43444,0 3.65166,1.20965 3.65166,3.77969 z"
       fill="#49b524"
       id="path2"
       style="stroke-width:6.30685" />
    <path
       d="m 143.18149,950.86042 c 0,2.41931 -1.21722,3.62896 -3.65229,3.62896 h -24.34634 c -2.43445,0 -3.65167,-1.20965 -3.65167,-3.62896 v -62.60117 c 0,-8.01412 -1.67384,-13.45756 -4.71752,-16.78443 -3.19505,-3.1755 -8.977177,-4.83861 -17.194367,-4.83861 -2.89106,0 -5.78212,0.15073 -8.67318,0.30209 -2.89107,0.15137 -5.63013,0.60483 -8.67382,1.20966 v 82.71246 c 0,2.41931 -1.21722,3.62896 -3.65166,3.62896 h -24.34634 c -2.43445,0 -3.6523,-1.20965 -3.6523,-3.62896 v -93.29725 c 0,-3.02414 0.45661,-5.29208 1.52184,-6.80446 1.06523,-1.51176 2.58707,-2.72141 4.86952,-3.4776 6.08611,-1.51238 13.23808,-2.72204 21.30265,-3.62896 8.06521,-0.90756 15.97778,-1.20966 23.58574,-1.20966 9.129797,0 17.042367,0.75619 23.585727,2.41931 6.54273,1.66312 11.86886,4.23379 15.97715,7.86275 4.10828,3.62896 7.15197,8.31685 9.12979,13.91166 1.97846,5.74554 2.89107,12.55 2.89107,20.41338 v 63.81083 z"
       fill="#49b524"
       id="path4"
       style="stroke-width:6.30685" />
    <path
       d="m 138.31008,868.45069 c -2.43444,0 -3.65166,-1.20966 -3.65166,-3.62897 v -17.08715 c 0,-2.41931 1.21722,-3.62896 3.65166,-3.62896 h 17.195 v -25.55473 c 0,-2.57068 1.21723,-3.78033 3.65356,-3.78033 h 24.34445 c 2.43444,0 3.65167,1.20965 3.65167,3.78033 v 25.55473 h 28.15378 c 2.43445,0 3.65167,1.20965 3.65167,3.62896 v 17.08715 c 0,2.41931 -1.21722,3.62897 -3.65167,3.62897 h -28.00242 v 47.3285 c 0,5.44408 0.91449,9.37514 2.89484,12.09717 1.97405,2.72141 6.08612,4.08243 12.47496,4.08243 2.43444,0 4.86889,0 7.30333,-0.15137 2.43445,-0.15073 4.86889,-0.30209 7.30334,-0.60482 2.13171,-0.15074 3.19757,0.75619 3.19757,2.72203 v 14.66722 c 0,1.81448 -1.06586,3.1755 -3.19757,4.08305 -2.88854,1.20966 -6.38885,1.96585 -10.50091,2.72141 -4.10576,0.60483 -8.06016,0.90756 -12.02086,0.90756 -14.30394,0 -24.49581,-3.32687 -30.43056,-9.97997 -5.93475,-6.65309 -8.97717,-15.87686 -8.97717,-27.52057 v -50.35264 z"
       fill="#49b524"
       id="path6"
       style="stroke-width:6.30685" />
    <path
       d="m 240.87021,912.75506 c 1.36859,6.95582 4.4148,11.9458 9.43505,14.81857 4.86889,2.87341 11.56677,4.38516 19.78459,4.38516 5.32299,0 10.80364,-0.15137 16.42935,-0.45346 5.63202,-0.30273 10.65227,-0.90756 15.06707,-1.66312 2.28308,-0.45409 3.5003,0.45346 3.5003,2.57004 v 15.12131 c 0,1.96584 -1.06586,3.32686 -3.04621,4.08305 -5.47434,1.51176 -11.40909,2.72141 -17.65287,3.4776 -6.23748,0.75619 -12.32359,1.20966 -18.10698,1.20966 -10.4946,0 -19.32419,-1.20966 -26.62752,-3.62897 -7.30334,-2.4193 -13.38945,-5.89753 -17.95561,-10.58479 -4.71752,-4.68788 -8.06646,-10.43342 -10.19187,-17.08715 -2.13172,-6.80446 -3.19757,-14.36448 -3.19757,-22.83269 v -6.6531 c 0,-16.33096 4.41479,-29.18369 13.23808,-38.70956 8.82328,-9.37514 22.67313,-14.21438 41.54323,-14.21438 16.73838,0 29.21333,4.08305 37.58253,12.24853 8.36919,8.16548 12.47495,19.20373 12.47495,33.11476 0,8.46821 -3.0399,14.81857 -8.97465,18.90163 -5.93475,4.08243 -14.00121,6.04827 -24.19308,6.04827 h -39.10879 z m 21.45591,-45.96812 c -6.08611,0 -11.10637,1.81511 -15.06076,5.29271 -3.96071,3.4776 -6.39515,9.67723 -7.15197,18.5989 h 34.23359 c 2.43444,0 4.26343,-0.60482 5.48065,-1.81448 1.21722,-1.20965 1.67132,-2.8734 1.67132,-4.83861 0,-5.74618 -1.51995,-9.97997 -4.56616,-12.85337 -3.19127,-3.02413 -8.06016,-4.38515 -14.60667,-4.38515 z"
       fill="#49b524"
       id="path8"
       style="stroke-width:6.30685" />
    <path
       d="m 351.19596,954.48938 c -7.61237,0 -14.30394,-1.20965 -20.08732,-3.78032 -5.93475,-2.57067 -10.80364,-6.04827 -14.9157,-10.58479 -4.10576,-4.53652 -7.15197,-9.97996 -9.27738,-16.02823 -2.13172,-6.19964 -3.19758,-13.0041 -3.19758,-20.41339 v -6.351 c 0,-8.16548 1.21723,-15.57477 3.65167,-22.22787 2.43445,-6.80446 6.08611,-12.55063 10.955,-17.23788 4.86889,-4.68789 11.10637,-8.46821 18.4097,-11.18962 7.30964,-2.72204 15.98156,-4.08305 25.87071,-4.08305 15.06707,0 28.75924,1.66374 40.93146,4.83924 4.26344,1.05829 6.39515,4.38516 6.39515,9.97996 v 96.92559 c 0,7.25793 -0.91449,13.60892 -2.74348,18.90163 -1.82268,5.44345 -4.71752,9.8286 -8.97465,13.45756 -4.11207,3.4776 -9.58641,6.19964 -16.13293,7.86276 -6.5402,1.66311 -14.75803,2.57067 -24.34444,2.57067 -5.78338,0 -12.02086,-0.45346 -18.8701,-1.20966 -6.69157,-0.90755 -12.93535,-2.11721 -18.56107,-3.78032 -2.28308,-0.75619 -3.5003,-1.96585 -3.5003,-3.78033 v -14.66721 c 0,-2.26858 1.21722,-3.1755 3.65167,-2.72204 4.41479,0.75619 9.13232,1.20965 14.4553,1.66312 5.32299,0.30273 10.65227,0.60545 16.28429,0.60545 5.17162,0 9.58642,-0.30272 12.92905,-1.05892 3.34894,-0.75619 6.24378,-1.81448 8.21783,-3.47759 2.13171,-1.51239 3.5003,-3.47823 4.41479,-5.89754 0.75682,-2.41931 1.21722,-5.29208 1.21722,-8.46758 v -3.78033 c -3.34893,1.36102 -7.45469,2.57068 -12.48125,3.32687 -4.86889,0.15136 -9.73778,0.60482 -14.29764,0.60482 z m 26.77889,-86.03869 c -2.43444,-0.7562 -5.02025,-1.20966 -7.45469,-1.36102 -2.58581,-0.15137 -5.17793,-0.30273 -7.76374,-0.30273 -9.12601,0 -15.97525,2.8734 -20.54141,8.46821 -4.56616,5.74554 -6.69788,13.60892 -6.69788,23.58888 v 3.1755 c 0,10.1307 2.28308,17.23789 6.69788,21.62304 4.56616,4.38516 11.25773,6.50174 20.54141,6.50174 2.43445,0 5.02026,0 7.9151,-0.15137 2.73717,-0.15073 5.17162,-0.3021 7.4547,-0.60482 v -60.93743 z"
       fill="#49b524"
       id="path10"
       style="stroke-width:6.30685" />
    <path
       d="m 445.07975,950.86042 c 0,2.41931 -1.21722,3.62896 -3.65166,3.62896 h -24.34445 c -2.44075,0 -3.65797,-1.20965 -3.65797,-3.62896 v -93.29725 c 0,-3.02414 0.4604,-5.29208 1.52625,-6.80446 1.06586,-1.51176 2.58581,-2.72141 4.71753,-3.4776 6.08611,-1.51238 12.62632,-2.72204 19.32419,-3.62896 6.84924,-0.90756 13.69218,-1.20966 20.69278,-1.20966 3.80303,0 7.60607,0 11.4154,0.15137 3.80304,0.15073 7.60607,0.45346 11.4091,0.90692 1.51995,0.30273 2.58581,0.75619 3.19757,1.20966 0.45409,0.60482 0.75682,1.51238 0.75682,2.72203 v 18.14481 c 0,2.72204 -1.51995,3.78033 -4.40849,3.1755 -3.34893,-0.75619 -6.69787,-1.20965 -9.89545,-1.66311 -3.19126,-0.30273 -6.23747,-0.60483 -8.82328,-0.60483 -3.19757,0 -6.38884,0.15137 -9.43505,0.3021 -3.0399,0.15136 -6.08611,0.60483 -8.97465,1.20965 v 82.86383 z"
       fill="#49b524"
       id="path12"
       style="stroke-width:6.30685" />
    <path
       d="m 540.4835,888.25925 c 0,-3.9317 -0.3027,-7.40929 -0.9145,-10.13133 -0.6055,-2.72141 -2.1317,-4.98998 -4.2571,-6.6531 -2.1317,-1.66312 -5.3293,-2.87277 -9.43507,-3.62896 -4.11207,-0.75619 -9.58642,-1.05892 -16.28429,-1.05892 -4.71753,0 -9.28369,0.15136 -13.99491,0.60483 -4.71752,0.30272 -8.52686,0.90755 -11.71813,1.66374 -1.21722,0.3021 -2.13171,0.15137 -2.89484,-0.15136 -0.75682,-0.45346 -1.06586,-1.20966 -1.06586,-2.57067 v -14.51585 c 0,-1.96585 1.06586,-3.32687 3.04621,-3.78033 6.38884,-1.81448 12.63262,-3.1755 18.56107,-4.08306 5.93474,-0.90692 11.56676,-1.20965 17.04741,-1.20965 9.88911,0 18.25831,0.75619 25.10761,2.41931 6.8429,1.66375 12.3236,4.23442 16.7384,7.71202 4.2571,3.47759 7.3033,7.86275 9.2773,13.15546 1.829,5.29208 2.8949,11.64308 2.8949,19.05237 v 56.40154 c 0,5.8969 -2.1317,9.22377 -6.3952,10.28206 -6.0861,1.51238 -13.2381,2.72203 -21.6072,3.47823 -8.2116,0.75556 -16.1267,1.20965 -23.73272,1.20965 -9.43505,0 -17.50152,-0.60483 -23.89036,-1.96585 -6.54651,-1.36101 -11.86949,-3.47822 -15.8302,-6.35099 -4.10576,-2.87278 -6.99429,-6.50174 -8.82328,-10.88689 -1.82268,-4.38516 -2.73717,-9.67787 -2.73717,-16.02823 0,-11.79445 3.5003,-20.56475 10.5009,-26.15956 6.9943,-5.74617 16.73839,-8.46821 29.21334,-8.46821 5.63202,0 11.25773,0.45409 16.73838,1.51238 5.47431,1.05829 10.50091,2.26794 14.75801,4.08243 v -3.93106 z m -41.6946,32.50992 c 0,3.93169 1.51995,6.80446 4.71753,8.46821 3.19757,1.66312 8.98095,2.57004 17.50151,2.57004 3.65167,0 7.00056,0 9.88916,-0.15073 3.0399,-0.15136 6.0861,-0.45409 9.435,-1.05892 v -19.95929 c -6.0861,-0.90756 -12.9353,-1.20966 -20.54138,-1.20966 -4.4148,0 -7.9151,0.3021 -10.65228,0.75556 -2.73717,0.4541 -4.86888,1.20966 -6.39514,2.11721 -1.51995,0.90756 -2.58581,2.11721 -3.19127,3.62897 -0.4604,1.36101 -0.76313,3.02413 -0.76313,4.83861 z"
       fill="#49b524"
       id="path14"
       style="stroke-width:6.30685" />
    <path
       d="m 649.7371,892.9465 v 58.36739 c 0,2.11721 -1.2172,3.17549 -3.5003,3.17549 h -27.0879 c -2.1255,0 -3.1913,-1.05828 -3.1913,-3.17549 V 834.57911 c 0,-5.74554 0.6054,-10.73552 1.8227,-14.81858 1.2172,-4.08242 3.3489,-7.25792 6.2438,-9.8286 2.8885,-2.4193 6.6915,-4.23379 11.409,-5.44344 4.7176,-1.05829 10.501,-1.66312 17.3439,-1.66312 21.6136,0 40.7801,0.90693 57.2157,2.57068 2.4345,0.15073 3.6517,1.51175 3.6517,4.23379 v 15.7255 c 0,2.26857 -1.2172,3.47823 -3.5003,3.47823 h -49.452 c -4.5662,0 -7.4547,1.05829 -8.9747,3.02413 -1.5262,1.96585 -2.1317,4.98998 -2.1317,9.22377 v 26.0082 h 53.8668 c 2.4345,0 3.6517,1.20965 3.6517,3.62896 v 18.75027 c 0,2.41931 -1.2172,3.62896 -3.6517,3.62896 h -53.7154 z"
       fill="#49b524"
       id="path16"
       style="stroke-width:6.30685" />
    <path
       d="m 702.538,895.51717 c 0,-17.69135 4.7176,-30.99818 14.0013,-39.76848 9.435,-8.77031 22.6731,-13.15546 40.0169,-13.15546 17.3502,0 30.5883,4.38515 40.0233,13.15546 9.4351,8.7703 13.9949,22.07713 13.9949,39.76848 v 7.71202 c 0,17.69135 -4.7175,30.99817 -13.9949,39.76785 -9.435,8.77031 -22.6731,13.15546 -40.0233,13.15546 -17.3438,0 -30.5819,-4.38515 -40.0169,-13.15546 -9.4351,-8.76968 -14.0013,-22.0765 -14.0013,-39.76785 z m 31.8055,6.95583 c 0,9.82859 1.6713,17.08652 4.8689,22.0765 3.1976,4.83862 8.9746,7.40929 17.3438,7.40929 8.2179,0 14.0012,-2.41931 17.3502,-7.40929 3.1912,-4.83862 4.8689,-12.24791 4.8689,-22.0765 v -6.351 c 0,-9.8286 -1.6777,-17.08652 -4.8689,-22.07651 -3.1976,-4.83861 -8.981,-7.40928 -17.3502,-7.40928 -8.2178,0 -13.9949,2.4193 -17.3438,7.40928 -3.1976,4.83862 -4.8689,12.24791 -4.8689,22.07651 z"
       fill="#49b524"
       id="path18"
       style="stroke-width:6.30685" />
    <path
       d="m 800.988,895.51717 c 0,-17.69135 4.7175,-30.99818 13.9949,-39.76848 9.4351,-8.77031 22.6731,-13.15546 40.0233,-13.15546 17.3438,0 30.5819,4.38515 40.017,13.15546 9.435,8.7703 14.0012,22.07713 14.0012,39.76848 v 7.71202 c 0,17.69135 -4.7176,30.99817 -14.0012,39.76785 -9.4351,8.77031 -22.6732,13.15546 -40.017,13.15546 -17.3502,0 -30.5882,-4.38515 -40.0233,-13.15546 -9.435,-8.76968 -13.9949,-22.0765 -13.9949,-39.76785 z m 31.7991,6.95583 c 0,9.82859 1.6777,17.08652 4.8689,22.0765 3.1976,4.83862 8.981,7.40929 17.3502,7.40929 8.2178,0 13.9949,-2.41931 17.3438,-7.40929 3.1976,-4.83862 4.8689,-12.24791 4.8689,-22.0765 v -6.351 c 0,-9.8286 -1.6713,-17.08652 -4.8689,-22.07651 -3.1912,-4.83861 -8.9746,-7.40928 -17.3438,-7.40928 -8.2178,0 -14.0012,2.4193 -17.3502,7.40928 -3.1912,4.83862 -4.8689,12.24791 -4.8689,22.07651 z"
       fill="#49b524"
       id="path20"
       style="stroke-width:6.30685" />
    <path
       d="m 946.9159,842.44249 c 4.7176,0 9.4351,0.45346 14.4553,1.20966 4.8689,0.75619 9.1324,1.81448 12.475,3.32623 v -44.6071 c 0,-2.26795 1.2172,-3.4776 3.5003,-3.4776 h 25.1076 c 2.1317,0 3.1975,1.20965 3.1975,3.4776 v 138.96264 c 0,5.74618 -2.1317,9.07241 -6.2374,9.97997 -12.1723,3.32686 -25.8707,4.83861 -40.9315,4.83861 -9.8955,0 -18.416,-1.36102 -25.8707,-4.08242 -7.3033,-2.72204 -13.5408,-6.50237 -18.4097,-11.18962 -4.8689,-4.68788 -8.6782,-10.43342 -10.9613,-17.23789 -2.4345,-6.80446 -3.6517,-14.21375 -3.6517,-22.22786 v -8.16548 c 0,-7.40929 1.0659,-14.21375 3.1976,-20.41339 2.1317,-6.19963 5.1716,-11.49234 9.2837,-16.02823 4.1057,-4.53652 8.9746,-8.16548 14.9094,-10.58479 5.632,-2.57067 12.3299,-3.78033 19.9359,-3.78033 z m 26.7789,25.10064 c -2.1317,-0.3021 -4.7175,-0.45346 -7.4547,-0.60483 -2.7372,-0.15136 -5.323,-0.15136 -7.9151,-0.15136 -9.126,0 -15.9752,2.11721 -20.5414,6.50236 -4.5662,4.38516 -6.6916,11.49172 -6.6916,21.62304 v 4.83862 c 0,10.13133 2.2831,17.99408 6.6916,23.58889 4.5662,5.74617 11.264,8.46757 20.5414,8.46757 2.5921,0 5.1779,-0.15073 7.7638,-0.30209 2.5858,-0.15137 5.0202,-0.60483 7.4547,-1.36102 v -62.60118 z"
       fill="#49b524"
       id="path22"
       style="stroke-width:6.30685" />
    <path
       d="m 1064.9928,892.34167 c 8.3692,3.32686 14.9157,7.56065 19.3242,12.702 4.5662,5.14071 6.6979,11.64308 6.6979,19.20373 0,10.28206 -3.8031,18.14481 -11.5668,23.58889 -7.7574,5.59481 -18.107,8.31621 -31.345,8.31621 -7.6061,0 -14.7581,-0.45346 -21.6073,-1.20965 -6.8493,-0.90693 -13.3895,-1.96585 -19.7783,-3.4776 -2.1317,-0.45346 -3.1976,-1.66312 -3.1976,-3.78033 v -15.1213 c 0,-2.26795 1.2172,-3.1755 3.5003,-2.72141 5.323,0.75556 11.4091,1.20965 17.9556,1.66312 6.5402,0.30272 12.6263,0.45346 18.2584,0.45346 5.632,0 9.7377,-0.75556 12.3236,-2.11658 2.5858,-1.36102 3.8093,-3.78033 3.8093,-6.95583 0,-2.72203 -1.0659,-4.83861 -3.0462,-6.351 -1.9804,-1.51175 -4.8689,-3.02413 -8.2178,-4.53588 l -17.4953,-6.8051 c -8.6782,-3.32623 -15.3697,-7.25792 -20.0873,-12.09654 -4.7175,-4.83861 -7.0006,-11.18961 -7.0006,-18.90163 0,-5.59418 1.0659,-10.28206 3.1976,-14.21375 2.1254,-3.93106 5.0202,-7.25793 8.6719,-9.8286 3.6517,-2.57067 8.2178,-4.38515 13.3895,-5.59481 5.1716,-1.20965 10.955,-1.81448 17.0411,-1.81448 6.3951,0 12.6326,0.45409 18.8701,1.20965 6.2374,0.7562 11.5667,1.96585 16.2843,3.47823 2.2767,0.75556 3.494,1.96585 3.494,3.78033 v 15.12068 c 0,2.26857 -1.2173,3.1755 -3.6517,2.72203 -4.8689,-0.75619 -9.8892,-1.20965 -15.0608,-1.66374 -5.0202,-0.3021 -10.1981,-0.60483 -15.2184,-0.60483 -5.0203,0 -8.8233,0.60483 -11.2577,1.66375 -2.4345,1.05829 -3.6517,3.32623 -3.6517,6.65309 0,2.87277 0.9082,4.83862 2.8885,6.04827 1.9804,1.20966 4.7176,2.57068 8.2179,3.9317 z"
       fill="#49b524"
       id="path24"
       style="stroke-width:6.30685" />
  </g>
  <g
     id="g210"
     transform="matrix(1.9220029,0,0,1.9220029,154.10109,135.51037)">
    <path
       d="m 358.49658,103.42795 h -15.21655 l 43.06256,75.30255 -43.06256,75.30317 h 15.21655 l 43.06255,-75.30317 z"
       fill="#49b524"
       id="path26"
       style="stroke-width:6.30685" />
    <path
       d="M 198.27038,0 H 76.995304 L 143.18697,82.409736 H 0 V 264.31573 H 35.454344 V 135.03095 c 0,-2.57067 1.217285,-3.78032 3.651919,-3.78032 h 26.020178 c 2.434444,0 3.651667,1.20965 3.651667,3.78032 V 264.4671 h 9.891035 V 160.43432 c 0,-5.89691 0.608611,-10.73615 1.825833,-14.81858 1.217223,-4.08242 3.195682,-7.25792 6.086743,-9.8286 2.89106,-2.4193 6.695353,-4.23379 11.260252,-5.44344 4.716899,-1.20965 10.347019,-1.66375 17.042379,-1.66375 21.30265,0 40.17149,0.90756 56.60525,2.57068 2.43444,0.15136 3.65167,1.51238 3.65167,4.23378 v 15.72614 c 0,2.26794 -1.21723,3.4776 -3.49968,3.4776 h -48.69267 c -4.41291,0 -7.45596,1.05892 -8.82581,3.02413 -1.36922,1.96585 -2.12983,4.98998 -2.12983,9.2244 v 26.0082 h 53.10496 c 2.43507,0 3.65229,1.20965 3.65229,3.62896 v 18.74964 c 0,2.41931 -1.21722,3.62959 -3.65229,3.62959 h -53.10496 v 45.51403 h 31.19369 L 76.995304,346.87683 H 198.27038 L 355.76066,173.43842 Z"
       fill="#49b524"
       id="path28"
       style="stroke-width:6.30685" />
  </g>
</svg>
